<svg version="1.1" xmlns="http://www.w3.org/2000/svg" xmlns:xlink="http://www.w3.org/1999/xlink">

  <svg id="tablet" width="0" height="0" viewBox="0 0 100 75" version="1.1">
      <g stroke="none" stroke-width="1" fill="none" fill-rule="evenodd">
        <path fill="#412357" transform="translate(50.000000, 37.500000) rotate(-90.000000) translate(-50.000000, -37.500000) " d="M21.5909091,-12.5 C21.5909091,-12.5 12.5,-12.5 12.5,-3.40909091 L12.5,78.4090909 C12.5,87.5 21.5909091,87.5 21.5909091,87.5 L78.4090909,87.5 C78.4090909,87.5 87.5,87.5 87.5,78.4090909
          L87.5,-3.40909091 C87.5,-12.5 78.4090909,-12.5 78.4090909,-12.5 L21.5909091,-12.5 Z M22.3148148,-7.5 C22.3148148,-7.5 17.5,-7.5 17.5,-2.94444444 L17.5,69.9444444
         C17.5,74.5 22.3148148,74.5 22.3148148,74.5 L77.6851852,74.5 C77.6851852,74.5 82.5,74.5 82.5,69.9444444 L82.5,-2.94444444 C82.5,-7.5 77.6851852,-7.5 77.6851852,-7.5 L22.3148148,-7.5 Z M50.093985,84.2272727 C51.9814927,84.2272727 53.51162,82.7009708 53.51162,80.8181818 C53.51162,78.9353928 51.9814927,77.4090909 50.093985,77.4090909 C48.2064772,77.4090909
         46.67635,78.9353928 46.67635,80.8181818 C46.67635,82.7009708 48.2064772,84.2272727 50.093985,84.2272727 Z M50.093985,84.2272727"/>
      </g>
  </svg>

  <svg id="user-2" width="0" height="0" viewBox="0 0 32 32">
    <path d="M27.447,21.032C24.874,27.108,19.628,32,16,32c-3.627,0-8.874-4.892-11.447-10.968
    c-2.499-0.396-2.542-5.399-2.542-5.399c-0.083-0.708,0.33-1.355,0.998-1.729C3.051,5.128,8.85,0,16,0
    c7.15,0,12.949,5.128,12.992,13.904c0.667,0.373,1.08,1.021,0.997,1.729C29.989,15.633,29.946,20.637,27.447,21.032z M26.114,15.08
    c0.037-0.391,0.063-0.781,0.064-1.17c-0.553,0.046-1.111,0.076-1.682,0.076c-4.25,0-8.048-1.343-10.694-3.458
    c0.166,1.455,0.677,3.016,1.938,4.169c0,0-3.278,0.401-6.34-2.886c-1.048,0.943-2.248,1.722-3.567,2.282
    c0.005,0.326,0.036,0.653,0.067,0.98c-0.726,0.218-1.102,1.256-0.837,2.364s1.068,1.865,1.815,1.731
    c1.948,5.132,6.204,9.467,9.123,9.467s7.186-4.334,9.136-9.466c0.743,0.124,1.54-0.63,1.802-1.732
    C27.201,16.338,26.831,15.307,26.114,15.08z M19.999,20C18.895,20,18,19.104,18,18s0.895-2,1.999-2c1.104,0,1.999,0.896,1.999,2
    S21.103,20,19.999,20z M19.999,23.271c0,1.099-2.343,1.822-3.999,1.822c-1.655,0-3.999-0.724-3.999-1.822
    c0-1.098,2.343-0.24,3.999-0.24C17.656,23.031,19.999,22.174,19.999,23.271z M12.001,20c-1.104,0-2-0.896-2-2s0.896-2,2-2
    s2,0.896,2,2S13.105,20,12.001,20z"></path>
  </svg>

  <svg id="web-browser" viewBox="0 0 100 100" enable-background="new 0 0 100 100" xml:space="preserve" height="0" width="0">
    <path  d="M5.333,8.5v13v53.167H95V21.5v-13H5.333z M92,71.667H8.333V21.5H92V71.667z M92,18.5H8.333v-7H92V18.5z"/>
    <rect x="87.333" y="25.333" width="3" height="43.667"/>
    <rect x="11.167" y="13.5" width="50.125" height="3"/>
    <rect x="11.167" y="26.25" width="36.375" height="3"/>
    <rect x="11.167" y="31.75" width="36.375" height="3"/>
    <rect x="11.167" y="37.249" width="50.125" height="3"/>
    <rect x="11.167" y="42.748" width="50.125" height="3"/>
    <rect x="11.167" y="48.247" width="46.208" height="3"/>
    <rect x="11.167" y="53.745" width="46.208" height="3"/>
    <rect x="11.167" y="59.244" width="50.125" height="3"/>
    <rect x="11.167" y="64.743" width="43.417" height="3"/>
    <rect x="87.333" y="13.5" width="2.961" height="3"/>
    <rect x="82.417" y="13.5" width="2.96" height="3"/>
    <rect x="77.5" y="13.5" width="2.961" height="3"/>
  </svg>

  <svg id="wifi-high" width="0" height="0" viewBox="0 0 32 32">
    <path d="M29.09,12.166c-7.23-7.23-18.953-7.23-26.184,0L0,9.257c8.837-8.837,23.164-8.837,32,0
    L29.09,12.166z M27.635,13.62l-2.91,2.91c-4.818-4.821-12.634-4.821-17.451,0l-2.91-2.91C10.789,7.194,21.207,7.194,27.635,13.62z
     M23.271,17.984l-2.91,2.909c-2.408-2.411-6.314-2.411-8.725,0l-2.909-2.909C12.742,13.968,19.256,13.968,23.271,17.984z
     M15.998,21.143c2.271,0,4.115,1.843,4.115,4.113c0,2.271-1.844,4.114-4.115,4.114c-2.27,0-4.113-1.843-4.113-4.114
    C11.885,22.985,13.729,21.143,15.998,21.143z"></path>
  </svg>

  <svg id="software" width="0" height="0" viewBox="0 0 99 100" enable-background="new 0 0 99 100" xml:space="preserve">
    <circle stroke-miterlimit="10" cx="50.5" cy="50" r="30.167"/>
  </svg>

  <svg id="documents-code" width="0" height="0" viewBox="0 0 100 100" enable-background="new 0 0 100 100" xml:space="preserve">
  <g>
    <path d="M90.072,19.436h-8.054v-8.721c0-0.85-0.69-1.539-1.54-1.539h-9.126V1.539c0-0.85-0.69-1.539-1.54-1.539H9.927   C9.078,0,8.388,0.689,8.388,1.539v77.498c0,0.85,0.69,1.539,1.539,1.539h9.141v7.637c0,0.85,0.689,1.539,1.54,1.539h8.043v8.709   c0,0.85,0.688,1.539,1.539,1.539h59.883c0.851,0,1.54-0.689,1.54-1.539V20.977C91.612,20.125,90.923,19.436,90.072,19.436z  
      M88.533,96.92H31.729v-7.168h48.749c0.85,0,1.54-0.689,1.54-1.539V22.516h6.515V96.92z M22.146,80.576h6.504h1.539h1.54h21.136   c0.393,0,0.786-0.16,1.082-0.455l16.947-16.949c0.296-0.295,0.458-0.689,0.458-1.084V22.516v-1.539v-1.541v-7.18h7.587v7.18v1.541  
       v1.539v64.158h-47.21h-1.54H28.65h-6.504V80.576z M11.467,3.08h56.806v6.096v1.539v1.541v7.18v1.541v1.539v38.033H52.865   c-0.851,0-1.54,0.691-1.54,1.539v15.408H31.729h-1.54H28.65h-6.504h-1.539h-1.54h-7.601V3.08z M54.404,75.316V63.629h11.688   L54.404,75.316z"/>
    <polygon points="32.073,16.197 34.253,16.197 61.302,16.197 61.302,13.117 37.332,13.117 35.152,13.117 32.973,13.117    18.438,13.117 18.438,16.197 29.894,16.197  "/>
    <polygon points="20.607,27.824 22.626,27.824 38.121,27.824 40.288,27.824 42.469,27.824 61.302,27.824 61.302,24.744    45.548,24.744 43.367,24.744 41.2,24.744 25.706,24.744 23.526,24.744 21.346,24.744 18.438,24.744 18.438,27.824 19.067,27.824     "/>
    <polygon points="20.607,39.451 22.146,39.451 28.65,39.451 30.189,39.451 31.729,39.451 61.302,39.451 61.302,36.371    33.921,36.371 31.741,36.371 29.562,36.371 22.146,36.371 20.607,36.371 19.067,36.371 18.438,36.371 18.438,39.451 19.067,39.451     "/>
    <polygon points="20.607,51.078 22.146,51.078 28.65,51.078 30.189,51.078 31.729,51.078 61.302,51.078 61.302,48 31.729,48    30.189,48 28.65,48 22.146,48 20.607,48 19.067,48 18.438,48 18.438,51.078 19.067,51.078  "/>
    <polygon points="20.607,62.705 22.146,62.705 28.65,62.705 30.189,62.705 31.729,62.705 45.068,62.705 45.068,59.625    31.729,59.625 30.189,59.625 28.65,59.625 22.146,59.625 20.607,59.625 19.067,59.625 18.438,59.625 18.438,62.705 19.067,62.705     "/>
  </g>
  </svg>

  <svg id="cross-out" width="0" height="0" viewBox="0 0 100 100" enable-background="new 0 0 100 100" xml:space="preserve">
  <path d="M56.15,49.999l39.063-39.063c1.697-1.699,1.697-4.451,0-6.15c-1.699-1.696-4.451-1.696-6.15,0L50,43.849L10.937,4.785  c-1.699-1.696-4.451-1.696-6.15,0c-1.697,1.699-1.697,4.451,0,6.15L43.85,49.999L4.787,89.062c-1.697,1.699-1.697,4.451,0,6.15 
   c0.849,0.848,1.963,1.275,3.075,1.275s2.226-0.427,3.075-1.275L50,56.149l39.063,39.063c0.849,0.848,1.963,1.275,3.075,1.275  c1.112,0,2.226-0.427,3.075-1.275c1.697-1.699,1.697-4.451,0-6.15L56.15,49.999z"/>
  </svg>

  <svg id="flow-icon" width="0" height="0" viewBox="0 0 100 100" enable-background="new 0 0 100 100" xml:space="preserve">
    <path d="M74.437,53.959c1.589-1.589,1.589-4.166,0-5.755c-0.416-0.416-40.529-25.479-40.766-25.598l-0.03-0.019l-0.002,0.001  c-0.539-0.263-1.136-0.424-1.775-0.424c-2.015,0-3.676,1.468-4.001,3.391L27.794,75.93c0,2.247,1.822,4.069,4.069,4.069  c0.635,0,1.228-0.158,1.763-0.417L74.437,53.959z"/>
  </svg>

  <svg id="gatekeeper" width="0" height="0" viewBox="0 0 100 100" enable-background="new 0 0 100 100" xml:space="preserve">
  <g>
    <g>
      <path d="M96.38,24.607c-0.681,0.215-1.405,0.334-2.157,0.334c-0.751,0-1.475-0.119-2.155-0.334l-0.236,1.561h-0.868v65.215h6.521    V26.168h-0.868L96.38,24.607z"/>
      <path d="M81.792,26.02l-0.633-0.115c-2.739-0.531-5.723-1.509-8.092-3.3c-5.755-4.353-9.679-12.48-22.802-12.585v-0.008  
        c-0.076,0-0.152-0.001-0.226-0.001h-0.021c-0.076,0-0.151,0.001-0.228,0.001v0.008c-13.123,0.105-17.047,8.232-22.801,12.585   
         c-2.368,1.792-5.351,2.77-8.092,3.3l-0.632,0.115c-2.39,0.41-4.538,0.493-5.842,0.493c-0.643,0-1.073-0.019-1.236-0.027v64.898  
           h77.652V26.486c-0.183,0.009-0.602,0.026-1.206,0.026C86.33,26.512,84.181,26.429,81.792,26.02z M18.265,88.957h-4.731v-5.721  
             h4.731V88.957z M18.265,80.809h-4.731V44.064h4.731V80.809z M18.265,41.637h-4.731V28.921c1.259-0.039,2.915-0.159,4.731-0.451  
               V41.637z M25.876,88.957h-6.397v-5.721h6.397V88.957z M25.876,80.809h-6.397V44.064h6.397V80.809z M25.876,41.637h-6.397V28.255  
                 c2.095-0.415,4.331-1.081,6.397-2.127V41.637z M42.286,13.729c1.612-0.603,3.428-1.033,5.553-1.207v29.115h-5.553V13.729z   
                   M33.487,88.957h-6.398v-5.721h6.398V88.957z M33.487,80.809h-6.398V44.064h6.398V80.809z M33.487,41.637h-6.398V25.453  
                     c0.467-0.285,0.926-0.583,1.364-0.914c1.548-1.17,2.898-2.517,4.327-3.941c0.234-0.234,0.471-0.468,0.707-0.703V41.637z  
                        M41.072,88.957h-6.372v-5.721h6.372V88.957z M41.072,80.809h-6.372V44.064h6.372V80.809z M41.072,41.637h-6.372V18.732   
                         c1.826-1.721,3.817-3.345,6.372-4.509V41.637z M47.839,88.957h-5.553v-5.721h5.553V88.957z M57.772,88.957h-5.556v-5.721h5.556    V88.957z M57.772,80.809h-5.556V66.055h-4.378v14.754h-5.553V44.064h5.553v4.159h4.378v-4.159h5.556V80.809z M57.772,41.637  
                           h-5.556V12.522c2.126,0.173,3.941,0.606,5.556,1.207V41.637z M65.355,88.957h-6.37v-5.721h6.37V88.957z M65.355,80.809h-6.37    V44.064h6.37V80.809z M65.355,41.637h-6.37V14.223c2.556,1.165,4.546,2.788,6.37,4.511V41.637z M72.967,88.957h-6.397v-5.721   
                            h6.397V88.957z M72.967,80.809h-6.397V44.064h6.397V80.809z M72.967,41.637h-6.397V19.896c0.236,0.234,0.473,0.468,0.707,0.703  
                             c1.43,1.424,2.779,2.771,4.327,3.941c0.437,0.331,0.896,0.629,1.363,0.914V41.637z M80.579,88.957H74.18v-5.721h6.399V88.957z     M80.579,80.809H74.18V44.064h6.399V80.809z M80.579,41.637H74.18V26.128c2.067,1.046,4.305,1.712,6.399,2.127V41.637z  
         M86.521,88.957h-4.729v-5.721h4.729V88.957z M86.521,80.809h-4.729V44.064h4.729V80.809z M86.521,41.637h-4.729V28.471    c1.816,0.292,3.472,0.412,4.729,0.451V41.637z"/>
      <path d="M44.712,64.641h10.157V49.623H44.712V64.641z M49.791,53.434c0.967,0,1.75,0.783,1.75,1.75    c0,0.621-0.325,1.164-0.812,1.475v4.172h-1.875v-4.172c-0.487-0.311-0.812-0.854-0.812-1.475    C48.041,54.217,48.824,53.434,49.791,53.434z"/>
      <circle cx="94.223" cy="19.241" r="4.772"/>
      <path d="M7.482,24.607c-0.682,0.215-1.405,0.334-2.157,0.334c-0.751,0-1.476-0.119-2.156-0.334l-0.236,1.561H2.065v65.215h6.521    V26.168H7.718L7.482,24.607z"/>
      <circle cx="5.326" cy="19.241" r="4.772"/>
    </g>
  </g>
  </svg>

  <svg id="span" width="0" height="0" viewBox="0 0 100 100" enable-background="new 0 0 100 100" xml:space="preserve">
    <path d="M82.483,47.729v-7.964L93.414,50.7L82.483,61.634v-7.905H18.627v7.905L7.696,50.7l10.931-10.936v7.964H82.483z   M6.602,32.102v36.004 M5.602,32.102v36.004h2V32.102H5.602z M94.508,31.992v36.003 M93.508,31.992v36.003h2V31.992H93.508z"/>
  </svg>

  <svg id="exhange" width="0" height="0" viewBox="0 0 32 32" enable-background="new 0 0 32 32" xml:space="preserve">
  <path id="exchange" d="M21.709,13.377l7.556-4.362l-7.556-4.363v2.598H2.736v3.5h18.973V13.377z M10.291,18.625l-7.556,4.362  l7.556,4.361v-2.598h18.974V21.25H10.291V18.625z"/>
  </svg>

  <svg id="endpoint" width="0" height="0" viewBox="0 0 100 100" enable-background="new 0 0 100 100" xml:space="preserve">
  <path d="M50.639,25.92c-5.492,0-10.872,1.906-15.148,5.369c-10.321,8.36-11.918,23.559-3.559,33.882  c4.596,5.674,11.424,8.929,18.734,8.929c0.001,0,0.001,0,0.002,0c5.491,0,10.87-1.907,15.146-5.369c5-4.05,8.124-9.805,8.797-16.204  c0.672-6.4-1.188-12.678-5.237-17.678C64.778,29.174,57.949,25.92,50.639,25.92z"/>
  </svg>

  <svg id="rest" width="0" height="0" viewBox="0 0 512 512" enable-background="new 0 0 512 512" xml:space="preserve">
  <g>
    <path d="M176,456H80c-13.234,0-24-10.766-24-24v-96c0-13.234,10.766-24,24-24h96c13.234,0,24,10.766,24,24v96   C200,445.234,189.234,456,176,456z M80,328c-4.411,0-8,3.589-8,8v96c0,4.411,3.589,8,8,8h96c4.411,0,8-3.589,8-8v-96   c0-4.411-3.589-8-8-8H80z"/>
  </g>
  <g>
    <path d="M432,200h-96c-13.234,0-24-10.766-24-24V80c0-13.234,10.766-24,24-24h96c13.234,0,24,10.766,24,24v96   C456,189.234,445.234,200,432,200z M336,72c-4.411,0-8,3.589-8,8v96c0,4.411,3.589,8,8,8h96c4.411,0,8-3.589,8-8V80   c0-4.411-3.589-8-8-8H336z"/>
  </g>
  <g>
    <path d="M224,392v-16c0.021,0,6.611-0.112,12.828-3.363C244.346,368.707,248,361.957,248,352V160   c0-16.085,7.253-28.571,20.422-35.155C277.839,120.136,286.988,120,288,120l0.044,16c-0.066,0-6.655,0.112-12.873,3.363   C267.654,143.293,264,150.043,264,160v192c0,16.085-7.253,28.571-20.422,35.155C234.161,391.864,225.012,392,224,392z"/>
  </g>
  </svg>

  <svg id="code-interface" width="0" height="0" viewBox="0 0 100 100" enable-background="new 0 0 100 100" xml:space="preserve">
    <path d="M83.012,17.5c0-0.527-0.271-0.99-0.682-1.258L66.477,2.637c-0.15-0.129-0.324-0.211-0.505-0.271C65.709,2.141,65.373,2,65,2  H18.5C17.671,2,17,2.671,17,3.5v93c0,0.828,0.671,1.5,1.5,1.5h63c0.828,0,1.5-0.672,1.5-1.5V18c0-0.067-0.011-0.13-0.02-0.195  C83.001,17.707,83.012,17.604,83.012,17.5z M20,95V5h44v12.5c0,0.829,0.672,1.5,1.5,1.5H80v76H20z"/>
    <path fill="#000000" d="M34.574,45.87l-7.191,7.191c-0.545,0.543-0.883,1.295-0.883,2.124c0,0.827,0.336,1.575,0.877,2.118  c0,0.001,0.002,0.002,0.002,0.003l7.195,7.194c1.172,1.172,3.071,1.172,4.242,0c1.172-1.172,1.172-3.014,0-4.186l-2.072-2.012  h17.813c1.657,0,3-1.344,3-3c0-1.657-1.343-3-3-3H36.743l2.073-2.132c0.586-0.585,0.879-1.384,0.879-2.15s-0.293-1.55-0.879-2.136 
     C37.646,44.714,35.746,44.7,34.574,45.87z"/>
    <path fill="#000000" d="M65.483,55.51l7.191-7.191c0.545-0.543,0.883-1.295,0.883-2.124c0-0.827-0.336-1.575-0.877-2.118  c0-0.001-0.002-0.002-0.002-0.003l-7.195-7.194c-1.172-1.172-3.071-1.172-4.242,0c-1.172,1.172-1.172,3.014,0,4.186l2.072,2.012  H45.5c-1.657,0-3,1.344-3,3c0,1.657,1.343,3,3,3h17.814l-2.073,2.132c-0.586,0.585-0.879,1.384-0.879,2.15s0.293,1.55,0.879,2.136 
     C62.412,56.666,64.312,56.68,65.483,55.51z"/>
  </svg>


  <svg id="girl" width="0" height="0" viewBox="0 0 100 100" enable-background="new 0 0 100 100" xml:space="preserve">
  <g>
    <path d="M96.479,65.07c-8.354-21.335,6.783-26.424,1.088-42.45c-0.717-2.945-2.136-5.634-4.091-7.854   c-1.086-1.458-2.12-2.352-3.129-2.831c-2.723-1.951-6.009-3.184-9.601-3.407c-5.126-0.319-9.894,1.488-13.449,4.658  
     c-0.14,0.476-13.782-5.766-21.342-6.237C29.398,5.918,14.542,14.962,7.302,28.745c1.023,0.42,2.098,0.833,3.211,1.235   C5.68,36.646,1.116,46.746,1.116,55.052c0,21.032,17.048,38.078,38.078,38.078c21.03,0,38.078-17.046,38.078-38.078  
     c0-0.164-0.01-0.325-0.013-0.487c2.426,2.889,4.334,4.841,4.339,4.844c7.601,7.405,16.812,10.308,15.354,6.837   C96.788,65.85,96.626,65.457,96.479,65.07z M60.006,43.359c0,3.36-2.724,6.076-6.075,6.076c-3.352,0-6.076-2.716-6.076-6.076   c0-1.701,0.708-3.237,1.838-4.34c1.096-1.068,2.588-1.733,4.238-1.733c2.149,0,4.027,1.125,5.11,2.811 
      C59.645,41.043,60.006,42.156,60.006,43.359z M30.531,43.359c0,3.36-2.724,6.076-6.075,6.076s-6.075-2.716-6.075-6.076   c0-3.352,2.724-6.073,6.075-6.073S30.531,40.008,30.531,43.359z M39.194,86.899c-16.979,0-30.739-14.726-30.739-30.74h61.478   C69.933,72.174,56.172,86.899,39.194,86.899z"/>
  </g>
  </svg>

  <svg id="filesystem" width="0" height="0" viewBox="0, 0, 100, 100">
    <g>
      <path d="M84.56,17.286 C85.347,17.394 85.743,17.384 86.505,17.896 C88.86,19.478 88,24.134 88,26 L85.976,26 L85.976,20.714 L85.865,20.17 L85.112,19.424 L84.56,19.314 L40,19.314 L40,17.286 z"/>
      <path d="M32.96,7 C37.264,7.525 36.488,11.739 36.4,15 L34.376,15 L34.376,10.428 L34.265,9.884 L33.513,9.138 L32.96,9.028 L12.32,9.028 L11.768,9.138 L11.015,9.884 L10.904,10.428 L10.904,19.314 L5.44,19.314 L4.888,19.424 L4.135,20.17 L4.024,20.714 L4.024,75.571 L4.135,76.115 
        L4.888,76.861 C6.604,77.205 5.252,76.972 9,76.972 L9,79 L5.44,79 C3.376,78.797 2.651,77.328 2,75.571 L2,20.714 C2.417,16.948 5.932,17.222 8.88,17.286 L8.88,10.428 C9.04,8.434 10.557,7.491 12.32,7 z"/>
    </g>
    <g>
      <path d="M89.56,24.286 C91.38,24.41 92.4,25.294 92.93,27.023 C92.998,27.245 92.997,27.483 93,27.714 C93.02,29.143 93,30.571 93,32 L90.976,32 L90.976,27.714 L90.865,27.17 L90.112,26.424 L89.56,26.314 L45,26.314 L45,24.286 z"/>
      <path d="M37.96,14 C42.67,14.426 41.4,19.798 41.4,23 L39.376,23 L39.376,17.429 L39.265,16.885 L38.512,16.139 L37.96,16.028 L17.32,16.028 L16.767,16.139 L16.014,16.884 L15.903,17.429 L15.903,26.314 L10.44,26.314 L9.888,26.424 L9.134,27.17 L9.024,27.714 L9.023,82.571 L9.134,83.115 L9.887,83.861 C11.233,84.183 12.629,83.983 14,83.972 L14,86 L10.44,86 C8.446,85.844
       7.496,84.334 7,82.571 L7,27.714 C7.376,23.85 10.895,24.238 13.88,24.286 C13.876,23.115 13.853,18.599 13.88,17.429 C13.895,16.785 14.077,16.056 14.522,15.566 C15.54,14.445 16.055,14.421 17.32,14 z"/>
    </g>
    <g>
      <path d="M42.96,21 C44.86,21 46.4,22.535 46.4,24.429 L46.4,31.286 L94.56,31.286 C96.46,31.286 98,32.821 98,34.714 L98,89.571 C98,91.465 96.46,93 94.56,93 L15.44,93 C13.414,92.891 12.328,91.449 12,89.571 L12,34.714 C12,32.821 13.54,31.286 15.44,31.286 L18.88,31.286 L18.88,24.429 C18.993,22.396 20.449,21.324 22.32,21 
        z M22.32,23.028 L21.768,23.139 L21.015,23.885 L20.904,24.429 L20.904,33.314 L15.44,33.314 C14.655,33.314 14.024,33.943 14.024,34.714 L14.024,89.571 L14.135,90.115 L14.888,90.861 L15.44,90.972 L94.56,90.972 C95.345,90.972 95.976,90.342 95.976,89.571 L95.976,34.714 C95.976,33.943 95.345,33.314 94.56,33.314 L44.376,33.314 L44.376,24.429 C44.377,23.658 43.745,23.028 42.96,23.028 z"/>
    </g>
  </svg>

  <svg id="server2" width="82px" height="100px" viewBox="-9.5 -18.497 82 100" enable-background="new -9.5 -18.497 82 100" xml:space="preserve">
    <path d="M71.396-15.29C70.345-14.881,46.205-3.401,46.205-3.401C44.073-2.39,42.5,0.455,42.5,2.812v73.604   c0,1.433,0.466,2.288,1.562,2.288c0.406,0,0.59-0.114,1.063-0.34l23.869-11.551c2.131-1.011,3.506-3.856,3.506-6.214v-73.602   C72.5-14.435,72.521-15.726,71.396-15.29z"/>
    <path d="M68.2-16.517c2.474-1.176,2.205-1.98-0.537-1.98H29.334c-2.74,0-7.015,0.784-9.502,1.934L-5.146-5.01   C-7.631-3.859-9.5-0.755-9.5,1.984v74.389c0,2.74,1.911,5.13,4.651,5.13h39.24c2.74,0,5.108-2.39,5.108-5.13V1.984   c0-2.739,1.962-5.865,4.437-7.041L68.2-16.517z M26.5,29.503h-26v-3h26V29.503z M26.5,22.503h-26v-3h26V22.503z M26.5,15.503h-26   v-3h26V15.503z"/>
  </svg>

  <svg id="laptop" width="0" height="0" viewBox="0 0 100 100" enable-background="new 0 0 100 100" xml:space="preserve">
    <path d="M94.902,78.723c-0.849-2.129-5.944-9.176-8.679-14.485c-0.517-1.003-1.132-1.64-1.751-2.032    c0.833-0.663,1.373-1.716,1.373-2.912l0.015-44.03c0.003-2.009-1.528-3.64-3.422-3.643l-64.715-0.026    c-1.889,0-3.422,1.631-3.424,3.641L14.283,59.27c0,1.016,0.388,1.927,1.019,2.587c-0.39,0.367-0.764,0.849-1.106,1.473  
      C11.359,68.593,5.59,75.88,4.699,77.987c-0.603,1.439-4.129,7.09,1.215,7.285c0.17,0.008,0.372,0.011,0.601,0.017l-0.073,0.026  
      c0,0,0.824,0.009,2.307,0.019c3.786,0.068,10.305,0.125,18.095,0.184c24.262,0.232,62.079,0.572,66.709,0.461    C98.902,85.86,95.477,80.168,94.902,78.723z M49.561,14.27c0.313,0.002,0.568,0.255,0.567,0.573   
     c0.002,0.315-0.256,0.569-0.571,0.567c-0.315,0.002-0.565-0.257-0.567-0.571C48.99,14.526,49.242,14.267,49.561,14.27z     M19.719,17.299l59.869,0.021l-0.019,39.629l-59.867-0.023L19.719,17.299z M41.074,83.736l1.715-8.411l16.249,0.008l1.851,8.41    L41.074,83.736z M12.996,73.604l5.847-8.696l62.153,0.176l5.268,8.549L12.996,73.604z"/>
  </svg>

  <svg id="iphone" width="0" height="0" viewBox="0 0 100 100" enable-background="new 0 0 100 100" xml:space="preserve">
    <path d="M65.029,6.898h-1.101V6.724c0-0.248-0.202-0.45-0.45-0.45h-6.91c-0.248,0-0.451,0.202-0.451,0.45v0.174H35.709  c-3.754,0-6.808,3.054-6.808,6.808v0.81h-0.289c-0.248,0-0.45,0.202-0.45,0.451v3.46c0,0.248,0.202,0.45,0.45,0.45h0.289v5.99  h-0.289c-0.248,0-0.45,0.202-0.45,0.45v2.31c0,0.249,0.202,0.451,0.45,0.451h0.289v3.689h-0.289c-0.248,0-0.45,0.202-0.45,0.451 
     v2.31c0,0.248,0.202,0.45,0.45,0.45h0.289v51.941c0,3.754,3.054,6.808,6.808,6.808h29.32c3.753,0,6.807-3.054,6.807-6.808V13.706  C71.836,9.952,68.782,6.898,65.029,6.898z M46.956,13.604h6.248c0.47,0,0.854,0.333,0.854,0.743s-0.384,0.743-0.854,0.743h-6.248  c-0.471,0-0.854-0.333-0.854-0.743S46.485,13.604,46.956,13.604z M43.707,13.628c0.396,0,0.719,0.322,0.719,0.719 
      s-0.322,0.719-0.719,0.719s-0.719-0.322-0.719-0.719S43.311,13.628,43.707,13.628z M50.082,89.797c-2.329,0-4.217-1.889-4.217-4.217  c0-2.329,1.888-4.217,4.217-4.217c2.328,0,4.217,1.888,4.217,4.217C54.299,87.908,52.41,89.797,50.082,89.797z M69.249,77.912  H30.915V20.411h38.334V77.912z"/>
  </svg>

  <svg id="database" width="0" height="0" viewBox="0 0 32 32">
    <path d="M16,32c-6.626,0-12-2.687-12-6l0,0v-3.376C4,25.94,9.374,28,16,28s12-2.06,12-5.376V26l0,0
      C28,29.313,22.626,32,16,32z M16,26c-6.626,0-12-2.687-12-6v-3.376C4,19.94,9.374,22,16,22s12-2.06,12-5.376V20
      C28,23.313,22.626,26,16,26z M16,20c-6.626,0-12-2.687-12-6v-3.376C4,13.94,9.374,16,16,16s12-2.06,12-5.376V14
      C28,17.313,22.626,20,16,20z M16,14C9.374,14,4,11.314,4,8V6c0-3.314,5.374-6,12-6s12,2.686,12,6v2C28,11.314,22.626,14,16,14z">
    </path>
  </svg>

  <svg id="menu" width="0" height="0" viewBox="0 0 32 32">
    <path d="M26,32H6c-3.314,0-6-2.687-6-6V6c0-3.314,2.686-6,6-6h20c3.313,0,6,2.686,6,6v20
    C32,29.313,29.313,32,26,32z M28,6c0-1.104-0.894-2-2-2H6C4.895,4,4,4.896,4,6v20c0,1.106,0.895,2,2,2h20c1.106,0,2-0.894,2-2V6z
    M8,20h16v4H8V20z M8,14h16v4H8V14z M8,8h16v4H8V8z"></path>
  </svg>

  <svg id="document-html" width="0" height="0" viewBox="0 0 32 32">
    <path d="M24,9v4h1c0.553,0,1,0.448,1,1c0,0.553-0.447,1-1,1h-2c-0.553,0-1-0.447-1-1V9
    c0-0.553,0.447-1,1-1S24,8.447,24,9z M14,15c-0.553,0-1-0.447-1-1V9c0-0.553,0.447-1,1-1s1.208,0.447,1.466,1L17,12.296L18.534,9
    C18.792,8.447,19.447,8,20,8s1,0.447,1,1v5c0,0.553-0.447,1-1,1s-1-0.447-1-1v-1.704c0,0-0.947,2.671-2,2.671s-2-2.671-2-2.671V14
    C15,14.553,14.553,15,14,15z M30.991,17.777c0,2.144-0.271,2.802-1.967,4.419c-0.064,0.062-0.104,0.123-0.152,0.185l-5.926,5.925
    C21.496,29.631,20.902,30,19.031,30H11c-1.104,0-2-0.896-2-2V17h3v10h7c1.104,0,2-0.896,2-2v-3c0-1.104,0.896-2,2-2h3
    c1.104,0,2-0.896,2-2V5H12v1H9V4c0-1.104,0.896-2,2-2h18c1.104,0,2,0.896,2,2v13.69C30.998,17.721,30.991,17.745,30.991,17.777z
    M11,8c0.553,0,1,0.447,1,1s-0.447,1-1,1v4c0,0.553-0.447,1-1,1s-1-0.447-1-1v-4c-0.553,0-1-0.447-1-1s0.447-1,1-1H11z M6,15
    c-0.553,0-1-0.447-1-1v-1H3v1c0,0.553-0.447,1-1,1s-1-0.447-1-1V9c0-0.553,0.447-1,1-1s1,0.447,1,1v2h2V9c0-0.553,0.447-1,1-1
    s1,0.447,1,1v5C7,14.553,6.553,15,6,15z"></path>
  </svg>

  <svg id="document-pdf" width="0" height="0" viewBox="0 0 32 32">
    <path d="M19,15c-0.553,0-1-0.447-1-1V9c0-0.553,0.447-1,1-1h3c0.553,0,1,0.447,1,1
    s-0.447,1-1,1h-2v1h1c0.553,0,1,0.448,1,1c0,0.553-0.447,1-1,1h-1v1C20,14.553,19.553,15,19,15z M14,8c1.657,0,3,1.343,3,3v1
    c0,1.657-1.343,3-3,3h-2c-0.553,0-1-0.447-1-1V9c0-0.553,0.447-1,1-1H14z M13,13h1c0.553,0,1-0.447,1-1v-1c0-0.553-0.447-1-1-1h-1
    V13z M27.991,17.777c0,2.144-0.271,2.802-1.967,4.419c-0.064,0.062-0.104,0.123-0.152,0.184l-5.927,5.927
    C18.496,29.631,17.902,30,16.031,30H8c-1.104,0-2-0.896-2-2V17h3v10h7c1.104,0,2-0.896,2-2v-3c0-1.104,0.896-2,2-2h3
    c1.104,0,2-0.896,2-2V5H9v1H6V4c0-1.104,0.896-2,2-2h18c1.104,0,2,0.896,2,2v13.69C27.998,17.721,27.991,17.745,27.991,17.777z
    M10,10.5c0,1.381-1.119,2.5-2.5,2.5H6v1c0,0.553-0.447,1-1,1s-1-0.447-1-1V9c0-0.553,0.447-1,1-1h2.5C8.881,8,10,9.119,10,10.5z
    M6,11h2v-1H6V11z"></path>
  </svg>

  <svg id="video-2" width="0" height="0" viewBox="0 0 32 32">
    <path d="M26,32H6c-3.314,0-6-2.688-6-6V6c0-3.314,2.686-6,6-6h20c3.312,0,6,2.686,6,6v20
    C32,29.312,29.312,32,26,32z M28,6c0-1.104-0.894-2-2-2H6l0,0l0,0v2H4l0,0l0,0v4h24V6z M28,14H4v12c0,1.106,0.896,2,2,2h20
    c1.106,0,2-0.894,2-2V14z M6,20h18v2H6V20z M6,16h18v2H6V16z M20,26H6v-2h14V26z M12,6h-2V4h2V6z M14,8h-2V6h2V8z M10,10V8h2v2H10z
    M18,6h-2V4h2V6z M20,8h-2V6h2V8z M16,10V8h2v2H16z M24,6h-2V4h2V6z M26,8h-2V6h2V8z M22,10V8h2v2H22z M8,8H6V6h2V8z M4,10V8h2v2H4z
    "></path>
  </svg>

  <svg id="image" width="0" height="0" viewBox="0 0 32 32">
    <path d="M28.729,4.699H3.271C1.467,4.699,0,6.166,0,7.969v16.062c0,1.803,1.467,3.27,3.271,3.27h25.459
    c1.804,0,3.271-1.467,3.271-3.27V7.969C32,6.166,30.533,4.699,28.729,4.699z M30.132,23.618h-0.935l-8.292-1.946l-5.723-4.286
    l-3.387,2.049l-4.672-5.301l-4.321,5.301L1.868,23.05V7.969c0-0.772,0.629-1.401,1.402-1.401h25.459
    c0.773,0,1.402,0.629,1.402,1.401V23.618z"></path>
    <circle cx="24.979" cy="11.46" r="2.674"></circle>
  </svg>

  <svg id="document" width="0" height="0" viewBox="0 0 32 32">
    <g>
      <path d="M7.909,7.659H24.09c0.668,0,1.21-0.541,1.21-1.209s-0.542-1.21-1.21-1.21H7.909c-0.668,0-1.21,0.542-1.21,1.21
      S7.241,7.659,7.909,7.659z"></path>
      </g>
      <g>
      <path d="M7.909,12.395H24.09c0.668,0,1.21-0.541,1.21-1.209s-0.542-1.21-1.21-1.21H7.909c-0.668,0-1.21,0.542-1.21,1.21
      S7.241,12.395,7.909,12.395z"></path>
      </g>
      <g>
      <path d="M7.909,17.13H24.09c0.668,0,1.21-0.541,1.21-1.209s-0.542-1.21-1.21-1.21H7.909c-0.668,0-1.21,0.542-1.21,1.21
      S7.241,17.13,7.909,17.13z"></path>
      </g>
      <g>
      <path d="M7.909,21.865H24.09c0.668,0,1.21-0.541,1.21-1.209s-0.542-1.21-1.21-1.21H7.909c-0.668,0-1.21,0.542-1.21,1.21
      S7.241,21.865,7.909,21.865z"></path>
      </g>
      <g>
      <path d="M7.909,26.601h8.319c0.668,0,1.209-0.541,1.209-1.209s-0.541-1.21-1.209-1.21H7.909c-0.668,0-1.21,0.542-1.21,1.21
      S7.241,26.601,7.909,26.601z"></path>
      </g>
      <g>
      <path d="M26.986,0H5.014c-1,0-1.814,0.813-1.814,1.813v28.372c0,1,0.814,1.814,1.814,1.814h21.973c1,0,1.814-0.814,1.814-1.814
      V1.813C28.801,0.813,27.986,0,26.986,0z M26.382,29.58H5.618V2.419h20.764V29.58z"></path>
    </g>
  </svg>

  <svg id="cat" width="0" height="0" viewBox="0 0 100 100" enable-background="new 0 0 100 100" xml:space="preserve">
    <path d="M93.177,46.266c-0.089-0.423-0.175-0.85-0.271-1.264c-0.208-0.885-0.433-1.754-0.68-2.597    c0.006-0.017,0.464-1.184,0.868-2.568c0.216-0.739,0.406-1.491,0.583-2.247c0.941-3.995,1.329-8.169,1.323-11.945    c-0.003-2.499-0.175-4.824-0.474-6.799c-0.008-0.052-0.017-0.1-0.025-0.151c-0.459-2.949-1.193-5.106-2.044-5.866    c-0.611-0.545-2.025-0.813-3.888-0.828c-0.001,0-0.002,0-0.004,0c-0.053,0-0.105,0-0.158,0c-0.215,0-0.436,0.003-0.662,0.01    c-0.521,0.016-1.061,0.042-1.632,0.092c-5.048,0.442-11.789,2.241-15.946,5.21c-0.007,0.004-0.012,0.007-0.017,0.011    c-0.5,0.358-0.966,0.734-1.384,1.126c-0.097-0.028-0.164-0.047-0.164-0.047l-0.002,0.015c-1.957-0.625-4.005-1.146-6.118-1.543    c-3.521-0.752-7.53-1.135-11.916-1.135h-1.133c-4.385,0-8.395,0.383-11.916,1.135c-2.132,0.4-4.198,0.926-6.169,1.559l-0.004-0.03    c0,0-0.049,0.014-0.124,0.035c-0.416-0.388-0.875-0.76-1.371-1.114c-0.005-0.003-0.01-0.007-0.016-0.011    c-4.157-2.969-10.899-4.768-15.947-5.21c-0.571-0.05-1.11-0.076-1.632-0.092C12.029,12.003,11.809,12,11.593,12    c-0.053,0-0.106,0-0.158,0h0c-0.001,0-0.002,0-0.003,0c-1.863,0.015-3.277,0.283-3.888,0.828c-0.851,0.76-1.585,2.917-2.044,5.866    c-0.009,0.051-0.018,0.099-0.026,0.151c-0.298,1.975-0.47,4.3-0.474,6.799c-0.005,3.776,0.383,7.95,1.324,11.945    c0.176,0.756,0.367,1.507,0.583,2.247c0.404,1.384,0.861,2.551,0.868,2.568c-0.063,0.214-0.115,0.44-0.175,0.658    c-0.289,1.036-0.546,2.106-0.776,3.204c-0.414,1.977-0.744,4.036-0.962,6.189c-1.552,15.309,4.432,27.809,16.007,33.438    c5.921,2.88,23.004,3.106,28.125,3.107c0.001,0,0.002,0,0.003,0c0,0,0.001,0,0.001,0c0.001,0,0.002,0,0.002,0    c0.001,0,0.003,0,0.004,0c5.122-0.001,22.204-0.228,28.126-3.107c11.574-5.629,17.559-18.129,16.007-33.438    C93.92,50.302,93.59,48.242,93.177,46.266z M68.862,39.385c5.756,0,10.426,5.018,10.426,11.206c0,6.192-4.67,11.211-10.426,11.211    S58.44,56.783,58.44,50.591C58.44,44.403,63.106,39.385,68.862,39.385z M31.135,39.385c5.755,0,10.425,5.018,10.425,11.206    c0,6.192-4.67,11.211-10.425,11.211c-5.756,0-10.423-5.019-10.423-11.211C20.712,44.403,25.379,39.385,31.135,39.385z     M10.133,36.814C9.393,33.436,8.995,29.699,9,25.957c0.003-2.283,0.152-4.486,0.431-6.372l0.014-0.082l0.005-0.028l0.004-0.028    c0.257-1.692,0.566-2.778,0.787-3.376c0.282-0.035,0.681-0.065,1.225-0.07l0.128,0c0.177,0,0.358,0.002,0.538,0.008    c0.526,0.016,0.97,0.042,1.399,0.08c3.998,0.358,9.74,1.809,13.365,4.178c-2.857,1.317-6.693,3.474-10.327,6.775    C13.827,29.532,11.699,33.254,10.133,36.814z M83.554,74.298c-0.12,0.273-0.388,0.437-0.667,0.437    c-0.098,0-0.197-0.021-0.292-0.062c-0.048-0.021-4.834-2.11-10.11-3.526c-1.651-0.443-3.398-0.816-5.021-1.121    c0.061,0.395,0.102,0.794,0.102,1.199c0,0.572-0.082,1.131-0.201,1.681c1.099,0.506,2.232,1.073,3.326,1.7    c4.611,2.644,8.613,6.119,8.781,6.266c0.303,0.265,0.334,0.725,0.07,1.027c-0.145,0.165-0.346,0.249-0.549,0.249    c-0.17,0-0.341-0.059-0.479-0.179c-0.04-0.035-4.065-3.53-8.548-6.1c-0.992-0.568-2.025-1.088-3.037-1.558    c-2.033,4.979-8.838,8.646-16.943,8.646s-14.91-3.667-16.942-8.646c-1.012,0.471-2.047,0.99-3.039,1.559    c-4.485,2.569-8.505,6.064-8.545,6.099c-0.138,0.121-0.309,0.18-0.479,0.18c-0.203,0-0.405-0.084-0.549-0.249    c-0.264-0.303-0.233-0.763,0.069-1.026c0.168-0.147,4.166-3.623,8.78-6.267c1.095-0.627,2.229-1.195,3.328-1.701    c-0.119-0.55-0.201-1.107-0.201-1.68c0-0.406,0.042-0.805,0.102-1.2c-1.624,0.305-3.372,0.679-5.024,1.122    c-5.281,1.417-10.061,3.505-10.108,3.526c-0.095,0.041-0.194,0.062-0.292,0.062c-0.28,0-0.547-0.163-0.667-0.436    c-0.162-0.368,0.006-0.798,0.374-0.96c0.048-0.021,4.929-2.152,10.316-3.599c1.917-0.515,3.954-0.935,5.79-1.266    c1.436-3.985,5.915-7.178,11.707-8.42c-0.045-1.22-0.069-2.47-0.069-3.744c0-13.059,2.439-23.643,5.449-23.643    s5.45,10.584,5.45,23.643c0,1.274-0.024,2.524-0.068,3.744c5.792,1.242,10.271,4.435,11.706,8.42    c1.836,0.331,3.872,0.752,5.788,1.266c5.387,1.446,10.27,3.578,10.317,3.599C83.547,73.501,83.715,73.93,83.554,74.298z     M89.852,36.897c-1.569-3.585-3.71-7.346-6.473-9.856c-3.619-3.289-7.441-5.442-10.295-6.761    c3.623-2.377,9.381-3.834,13.387-4.192c0.429-0.038,0.873-0.064,1.392-0.08C88.049,16.002,88.23,16,88.407,16l0.13,0    c0.542,0.004,0.941,0.035,1.223,0.07c0.221,0.598,0.529,1.684,0.787,3.376l0.004,0.028l0.005,0.028l0.013,0.076l0.001,0.006    c0.279,1.886,0.428,4.088,0.431,6.372C91.006,29.728,90.604,33.494,89.852,36.897z"/>
    <path d="M31.135,60.091c4.73,0,8.568-4.254,8.568-9.499c0-2.675-1.003-5.088-2.61-6.814c0.019,0.139,0.034,0.281,0.034,0.427    c0,1.362-0.859,2.465-1.918,2.465c-1.061,0-1.917-1.103-1.917-2.465c0-1.07,0.531-1.971,1.271-2.312    c-1.05-0.509-2.208-0.796-3.428-0.796c-4.73,0-8.563,4.252-8.563,9.496C22.571,55.837,26.404,60.091,31.135,60.091z"/>
    <path d="M68.862,60.091c4.73,0,8.568-4.254,8.568-9.499c0-2.675-1.003-5.088-2.609-6.814c0.019,0.139,0.033,0.281,0.033,0.427    c0,1.362-0.859,2.465-1.918,2.465c-1.061,0-1.917-1.103-1.917-2.465c0-1.07,0.531-1.971,1.271-2.312    c-1.05-0.509-2.208-0.796-3.428-0.796c-4.73,0-8.562,4.252-8.562,9.496C60.3,55.837,64.132,60.091,68.862,60.091z"/>
    <path d="M58.185,73.314c-0.273,0.01-0.487,0.242-0.479,0.515c0,0.027,0.009,0.635-0.518,1.175    c-0.565,0.581-1.573,0.888-2.911,0.888c-3.267,0-3.733-1.968-3.79-2.281c0.004-0.023,0.005-0.04,0.005-0.044v-2.367    c1.865-0.135,2.878-1.084,3.553-2.035c0.789-1.108,1.293-2.523,1.123-3.801c-0.168-1.278-1.786-2.11-3.271-2.496    c-0.68-0.178-1.311-0.218-1.912-0.21c-0.6-0.008-1.231,0.032-1.91,0.21c-1.487,0.386-3.106,1.218-3.273,2.496    c-0.167,1.277,0.333,2.692,1.124,3.801c0.674,0.951,1.688,1.9,3.555,2.035l0.001,2.398c-0.074,0.407-0.584,2.294-3.786,2.294    c-1.34,0-2.346-0.307-2.911-0.888c-0.527-0.54-0.518-1.147-0.518-1.168c0.013-0.275-0.2-0.512-0.476-0.525    c-0.28-0.018-0.511,0.2-0.523,0.478c-0.002,0.041-0.039,1.033,0.777,1.891c0.768,0.805,1.995,1.214,3.65,1.214    c2.515,0,3.717-1.035,4.289-1.95c0.568,0.909,1.77,1.95,4.292,1.95c1.654,0,2.883-0.409,3.648-1.214    c0.819-0.857,0.78-1.85,0.779-1.891C58.69,73.515,58.455,73.306,58.185,73.314z"/>
  </svg>
</svg>
